PathFileType	4	(X/Y/Z)	C:\Users\Basilio\Documents\Thesis Gigler\squatting_fais\c3dfiles\075\SLS_front_pre5\markers_experimental.trc
DataRate	CameraRate	NumFrames	NumMarkers	Units	OrigDataRate	OrigDataStartFrame	OrigNumFrames
200.000000	200.000000	4	61	mm	200.000000	1192	1363
Frame#	Time	FHD			LBHD			C7			T10			CLAV			LSHO			LUUPA			LMUPA			LDUPA			LLEP			LMEP			LRAD			LUL			LRFIN			RSHO			RUPA1			RMUPA			RDUPA			RLEP			RMEP			RRAD			RUL			RUFIN			RASI			USACR			LSACR			RSACR			LTHI1			LTHI2			LTHI3			LTHI4			LLFC			LMFC			LTIB1			LTIB2			LTIB3			LTIB4			LLMAL			LMMAL			LHEE			LMT1			LMT2			LMT5			RTHI			RTHI2			RTHI3			RTHI4			RLFC			RMFC			RTIB1			RTIB2			RTIB3			RTIB4			RLMAL			RMMAL			RHEE			RMT1			RMT2			RMT5			LASI			RBHD			
		X1	Y1	Z1	X2	Y2	Z2	X3	Y3	Z3	X4	Y4	Z4	X5	Y5	Z5	X6	Y6	Z6	X7	Y7	Z7	X8	Y8	Z8	X9	Y9	Z9	X10	Y10	Z10	X11	Y11	Z11	X12	Y12	Z12	X13	Y13	Z13	X14	Y14	Z14	X15	Y15	Z15	X16	Y16	Z16	X17	Y17	Z17	X18	Y18	Z18	X19	Y19	Z19	X20	Y20	Z20	X21	Y21	Z21	X22	Y22	Z22	X23	Y23	Z23	X24	Y24	Z24	X25	Y25	Z25	X26	Y26	Z26	X27	Y27	Z27	X28	Y28	Z28	X29	Y29	Z29	X30	Y30	Z30	X31	Y31	Z31	X32	Y32	Z32	X33	Y33	Z33	X34	Y34	Z34	X35	Y35	Z35	X36	Y36	Z36	X37	Y37	Z37	X38	Y38	Z38	X39	Y39	Z39	X40	Y40	Z40	X41	Y41	Z41	X42	Y42	Z42	X43	Y43	Z43	X44	Y44	Z44	X45	Y45	Z45	X46	Y46	Z46	X47	Y47	Z47	X48	Y48	Z48	X49	Y49	Z49	X50	Y50	Z50	X51	Y51	Z51	X52	Y52	Z52	X53	Y53	Z53	X54	Y54	Z54	X55	Y55	Z55	X56	Y56	Z56	X57	Y57	Z57	X58	Y58	Z58	X59	Y59	Z59	X60	Y60	Z60	X61	Y61	Z61	

1193	5.96	-1.452225685119629	1609.03759765625	-878.525817871094	-128.1770477294922	1584.484130859375	-1030.449829101563	-256.9653625488282	1478.210083007813	-1000.231872558594	-306.9275512695313	1149.299194335938	-991.859558105469	-131.526596069336	1397.9853515625	-945.6736450195315	-112.0840377807617	1425.328002929688	-1112.768432617188	-108.6482391357422	1230.350708007813	-1239.249755859375	-75.62041473388673	1205.190063476563	-1211.599243164063	-92.5464324951172	1163.808349609375	-1253.912475585938	-71.43909454345705	1081.971557617188	-1253.816040039063	-150.9694213867188	1066.502685546875	-1211.148681640625	-8.726449966430666	972.0107421875002	-1031.934204101563	36.96838378906251	937.993347167969	-1082.318237304688	43.51255035400391	937.478210449219	-972.9451293945315	-227.5659484863282	1438.31689453125	-810.6145019531252	-322.9171752929688	1254.688842773438	-708.3677368164064	-284.3923339843751	1224.448974609375	-700.7832641601564	-330.6889038085938	1187.436279296875	-687.5248413085939	-322.7539978027344	1118.098266601563	-669.6137084960939	-351.5895080566407	1082.25537109375	-739.7962646484376	-98.88867187500003	991.8740844726565	-776.466491699219	-119.5073013305664	966.3461914062502	-706.7084350585939	-25.91041564941407	937.2410278320315	-773.6954345703127	-199.1956329345704	980.556579589844	-817.0615234375002	-307.9130249023438	1044.6123046875	-989.6035156250002	-307.8309936523438	1012.745422363281	-1015.677795410156	-324.8022460937501	1015.426574707031	-961.4016113281252	-182.5979156494141	725.5872802734376	-1137.880737304688	-164.1632690429688	644.2726440429689	-1131.711547851563	-123.2990875244141	644.0223388671876	-1103.574951171875	-201.2039489746094	595.5173950195314	-1128.78125	-232.2110290527344	486.9528198242189	-1124.494995117188	-213.7560577392579	467.5576782226564	-996.9119262695315	-195.3836975097657	360.2528381347657	-1090.385620117188	-251.0100097656251	327.4216613769532	-1147.411987304688	-214.1954803466797	316.9450378417969	-1123.180419921875	-227.4524078369141	235.9979095458985	-1096.626953125	-314.7447814941407	102.7077331542969	-1125.519287109375	-290.6145935058594	112.0388565063477	-1043.396728515625	-371.9106140136719	66.28235626220705	-1088.584716796875	-163.4096069335938	51.82757949829103	-1053.229858398438	-158.3524322509766	55.68513870239259	-1101.804321289063	-193.7837982177735	41.72058105468751	-1158.00634765625	-280.6535339355469	779.8086547851565	-764.9832763671876	-241.116195678711	729.7753295898439	-748.0419311523439	-207.965805053711	736.5200805664064	-748.1856079101564	-258.7156372070313	646.5832519531251	-761.0208740234376	-252.7957000732422	490.9120178222657	-789.203796386719	-165.0750427246094	481.1962890625001	-881.3773193359377	-176.8452606201172	345.6611022949219	-812.2155761718752	-248.0758361816407	268.3312072753907	-783.7535400390627	-201.4260253906251	263.3795776367188	-792.6225585937502	-189.7596588134766	217.5070800781251	-825.2900390625002	-264.4687805175782	93.38624572753908	-823.0298461914065	-198.7745361328126	117.3366012573242	-877.9182739257815	-278.6198425292969	56.73938369750978	-896.340270996094	-99.91616821289065	59.68457794189455	-788.1611938476565	-122.8337173461914	60.4245071411133	-753.3093261718751	-180.9927520751953	36.83483886718751	-727.0460815429689	-121.3110427856446	964.8924560546877	-1057.883422851563	-159.8079986572266	1617.878784179688	-877.1687622070315	
1194	5.965	-3.105144262313844	1611.310546875	-875.3170166015627	-127.2533340454102	1583.687133789063	-1028.78759765625	-256.1207580566407	1477.73779296875	-998.8618774414065	-306.3821716308594	1149.074829101563	-990.4348144531252	-131.514404296875	1398.111206054688	-943.9458007812502	-111.1930160522461	1425.268920898438	-1110.862670898438	-107.7555160522461	1230.308471679688	-1237.60693359375	-74.83858489990236	1205.299194335938	-1210.114990234375	-91.78513336181642	1163.963256835938	-1252.370239257813	-70.78675842285158	1082.087158203125	-1252.825439453125	-150.3008270263672	1066.539306640625	-1209.843994140625	-8.100566864013674	971.641296386719	-1030.989624023438	37.69536590576173	937.7189941406252	-1081.1865234375	43.93354415893555	937.5283203125002	-972.1667480468752	-227.6993713378907	1438.136962890625	-808.975280761719	-323.3290710449219	1254.448852539063	-707.0723266601564	-284.8328857421876	1224.24853515625	-699.2712402343751	-331.1932983398438	1187.194458007813	-686.2228393554689	-323.3459777832032	1117.896118164063	-668.3521118164064	-351.8705139160157	1081.969116210938	-738.8090209960939	-99.14157867431643	991.5010986328127	-774.507019042969	-120.0811538696289	965.9285888671877	-704.8619384765626	-25.96517944335938	937.3754882812502	-771.6707153320315	-196.6392822265626	981.632751464844	-816.4145507812502	-307.4873352050782	1044.6728515625	-987.8201904296877	-307.3788757324219	1012.38525390625	-1014.172180175781	-323.8051452636719	1014.883361816406	-960.081970214844	-181.0406799316407	725.5339355468751	-1136.240844726563	-161.9875793457032	644.1337890625001	-1130.44677734375	-122.2356872558594	644.3231201171876	-1102.383666992188	-200.2606201171876	595.5967407226564	-1127.808349609375	-230.8015594482422	486.9026489257814	-1123.523681640625	-212.5834503173829	467.2122192382814	-996.021179199219	-194.2534790039063	359.9511718750001	-1089.587524414063	-250.0518646240235	327.3946838378907	-1146.816284179688	-213.1908874511719	316.6459045410157	-1122.482055664063	-226.7575378417969	235.9363403320313	-1096.212036132813	-314.6534423828126	102.7692031860352	-1125.4921875	-290.4959716796876	112.0733413696289	-1043.2734375	-371.8815917968751	66.33679962158205	-1088.541625976563	-163.326904296875	51.81034469604494	-1053.253662109375	-158.3661499023438	55.66908264160158	-1101.824462890625	-193.7972564697266	41.72491836547852	-1157.992431640625	-279.7439270019532	779.6005859375002	-763.7318725585939	-240.5100250244141	729.1418457031251	-747.4069824218751	-207.0725250244141	736.2261962890626	-747.2810058593751	-258.1664733886719	646.2503662109376	-760.5208129882814	-252.8585968017579	490.5908508300782	-788.9621582031252	-165.3670654296875	480.9064331054689	-881.5266723632815	-177.1837615966797	345.3206787109376	-812.581481933594	-248.1028900146485	267.7197570800782	-783.7269287109377	-201.4093475341797	263.0238342285157	-792.790222167969	-189.9414215087891	217.1620788574219	-825.635192871094	-264.5868225097657	93.01110839843751	-823.2510375976565	-198.9718322753907	117.0035095214844	-878.1392822265627	-278.6942443847657	56.12263870239259	-896.3667602539065	-99.94566345214847	59.64020919799806	-788.3236083984377	-122.8904037475586	60.33407592773439	-753.4319458007814	-180.999984741211	36.8696632385254	-727.0505371093751	-121.004150390625	964.6462402343752	-1056.450439453125	-162.251708984375	1618.225463867188	-876.867126464844	
1195	5.97	-4.841448307037354	1613.556884765625	-872.1986083984377	-126.5772247314453	1582.898071289063	-1027.090576171875	-255.9346313476563	1477.4951171875	-997.375427246094	-305.3774414062501	1148.847778320313	-988.8062744140627	-130.9311218261719	1397.89111328125	-941.7241210937502	-110.7750015258789	1425.267211914063	-1109.028076171875	-107.3402328491211	1230.530151367188	-1235.888549804688	-74.04076385498048	1205.403564453125	-1208.467163085938	-91.09862518310548	1164.07275390625	-1250.70263671875	-69.84056854248048	1082.253173828125	-1251.142822265625	-149.5463256835938	1066.607421875	-1208.357177734375	-7.330453395843508	971.6639404296877	-1029.649291992188	38.29854965209962	937.4428710937502	-1080.030029296875	44.30516052246094	937.2299804687502	-971.236999511719	-227.9317321777344	1437.984375	-807.3739013671877	-323.8827209472657	1254.175903320313	-705.7823486328126	-285.2209472656251	1224.112426757813	-697.7623291015626	-331.6896362304688	1186.9169921875	-685.0272827148439	-323.9476928710938	1117.481811523438	-667.1136474609376	-352.2853088378907	1081.7275390625	-737.5454711914064	-99.4328308105469	991.205749511719	-772.662292480469	-120.5222244262696	965.663024902344	-702.9506835937501	-26.26601028442384	937.0911865234377	-769.5131835937502	-196.6373748779297	981.137878417969	-814.4967041015627	-306.6213378906251	1044.501220703125	-986.2135009765627	-306.0729675292969	1012.294860839844	-1012.489013671875	-323.4130859375001	1014.293395996094	-958.4417114257815	-180.5950164794922	725.8004760742189	-1135.145141601563	-160.9092559814453	644.6966552734376	-1128.814086914063	-120.3885192871094	644.1503906250001	-1100.69140625	-198.0064239501954	595.4320068359376	-1126.3642578125	-229.1698150634766	486.707489013672	-1122.458618164063	-210.7915344238282	466.9900207519532	-995.0857543945315	-193.683578491211	359.6700439453126	-1089.183471679688	-248.7188110351563	327.2476196289063	-1145.443237304688	-212.4135284423829	316.4998474121094	-1121.861328125	-226.4832000732422	235.8278961181641	-1096.014892578125	-314.5663146972657	102.9268417358399	-1125.401245117188	-290.4307250976563	112.0652008056641	-1043.158935546875	-371.8094177246094	66.43010711669923	-1088.539672851563	-163.3075561523438	51.72196578979494	-1053.239624023438	-158.36376953125	55.65376281738283	-1101.778076171875	-193.7439575195313	41.86812210083009	-1157.999755859375	-279.0236206054688	779.2942504882815	-762.7525634765626	-239.7439575195313	728.7781982421876	-746.2713012695314	-206.4667358398438	735.6243896484376	-746.7333374023439	-257.7499694824219	645.8897094726564	-759.9453735351564	-252.9790802001954	490.2025451660157	-788.812194824219	-167.3335418701172	480.869110107422	-881.9959106445315	-177.3943939208985	344.8819274902344	-812.8609619140627	-248.0602111816407	267.2913208007813	-783.6929321289065	-201.4717864990235	262.6362304687501	-792.9692382812502	-189.8583984375	216.7034606933594	-825.7527465820315	-264.6977539062501	92.71960449218751	-823.3829345703127	-199.1923370361329	116.6022491455078	-878.331970214844	-278.8748474121094	55.66129684448244	-896.408386230469	-100.0021286010742	59.19172668457033	-788.2361450195315	-123.9284439086914	59.6534767150879	-753.4591674804689	-180.971923828125	36.86016082763673	-727.0655517578126	-120.2706985473633	964.3439941406252	-1054.855102539063	-163.0111541748047	1618.96826171875	-875.7156372070315	
1196	5.975000000000001	-6.679450511932375	1615.821899414063	-869.0095825195315	-125.8284454345703	1581.9658203125	-1025.105590820313	-255.5808105468751	1477.266845703125	-995.8281860351565	-304.7398071289063	1148.649291992188	-987.404968261719	-130.5299530029297	1397.887084960938	-939.7232055664065	-109.3871078491211	1425.018798828125	-1106.717163085938	-106.7239303588867	1230.502075195313	-1234.1904296875	-73.10861968994142	1205.3154296875	-1206.7041015625	-90.40662384033205	1164.218505859375	-1249.156494140625	-69.29700469970705	1082.126220703125	-1249.617553710938	-148.9021911621094	1066.674072265625	-1206.966796875	-6.64129161834717	971.4180908203127	-1028.400634765625	39.04881668090821	937.1558837890627	-1078.709838867188	45.63156127929688	936.5339965820315	-969.6228637695315	-228.1011199951172	1437.889038085938	-805.6264648437502	-324.3368835449219	1253.847045898438	-704.4640502929689	-285.7819519042969	1223.863647460938	-696.5321655273439	-332.2276611328126	1186.638427734375	-683.6452026367189	-324.4987487792969	1117.186889648438	-665.7868652343751	-353.1815185546876	1081.608276367188	-736.2011108398439	-99.63162994384768	990.6622314453127	-770.6198730468752	-121.0079803466797	965.352478027344	-701.0920410156251	-26.89641380310059	935.9165039062502	-767.6707153320314	-195.6737976074219	980.9004516601565	-812.6315917968752	-305.5150756835938	1043.9736328125	-984.7198486328127	-305.2854003906251	1012.087585449219	-1010.797424316406	-322.4580688476563	1014.983337402344	-956.7745361328127	-178.177001953125	725.6216430664064	-1133.310913085938	-160.4501647949219	643.6268920898439	-1125.84814453125	-119.5918884277344	644.3319091796876	-1099.450073242188	-196.5745391845704	595.3601684570314	-1125.14990234375	-227.3926544189454	486.6202087402345	-1121.516357421875	-209.801498413086	466.5984191894532	-994.2828369140627	-192.2599639892579	359.4518432617188	-1088.233276367188	-248.5076599121094	327.5960998535157	-1145.1591796875	-211.4065399169922	316.3083801269532	-1121.196411132813	-225.9121704101563	235.6627044677735	-1095.574340820313	-314.4635314941407	103.1713180541992	-1125.307006835938	-290.2984313964844	112.0775146484375	-1043.019653320313	-371.8588867187501	66.61000061035158	-1088.454467773438	-163.4140167236328	51.69630050659181	-1053.226318359375	-158.9751281738282	54.92311859130861	-1101.9423828125	-193.6235961914063	41.74168395996094	-1157.88720703125	-278.3976745605469	778.8806762695315	-761.5423583984376	-239.2003021240235	728.3325805664064	-745.4457397460939	-205.8465118408204	735.2633666992189	-745.7676391601564	-257.3957519531251	645.5439453125001	-759.4454345703126	-253.2382812500001	489.8394775390626	-788.614196777344	-166.3140869140625	480.5098571777345	-881.8748168945315	-177.7008666992188	344.6045532226563	-813.107360839844	-247.9804382324219	266.9411926269532	-783.6194458007815	-201.4533233642579	262.1005249023438	-793.1790161132815	-190.1651153564453	216.4937591552735	-826.0828857421877	-264.8023071289063	92.38111877441408	-823.5714111328127	-199.3249969482422	116.1737518310547	-878.5010986328127	-278.9147338867188	55.08408355712892	-896.453063964844	-99.98113250732425	59.14978790283205	-788.359069824219	-123.9838943481446	59.54695129394533	-753.5720214843751	-180.9760284423828	36.88637161254884	-727.1051635742189	-118.9264450073242	964.192810058594	-1052.721557617188	-164.8879547119141	1619.537841796875	-875.0157470703127	
